# xmcd
#
# Track frame offsets:
#	225
#	11423
#	25444
#	37473
#	49068
#	59414
#	73822
#	90774
#	102217
#	112800
#	124768
#	145097
#	153712
#	164192
#
# Disc length: 2384 seconds
#
# Revision: 3
# Processed by: cddbd v1.5.2PL0 Copyright (c) Steve Scherf et al.
# Submitted via: audiograbber 1.83.01
#
DISCID=c4094d0e
DTITLE=Ursprung Buam - I bin der Teufelsgeigerbua
DYEAR=1900
DGENRE=Volksmusik
TTITLE0=Der Teufelsgeigerbua
TTITLE1=I brauch' an Boarischen
TTITLE2=Die Ursprung Buam geig'n auf
TTITLE3=Landlerisch aufg'spielt
TTITLE4=Zillertaler Ahnentanz
TTITLE5=Zico-Boarischer
TTITLE6=Schia langsam
TTITLE7=G'rad a bissal
TTITLE8=Kohlstattl-Boarischer
TTITLE9=Oh Maria
TTITLE10=Es ist vorbei
TTITLE11=Hogmoar-Polka
TTITLE12=Märchenwelt
TTITLE13=Komm doch
EXTD=
EXTT0=
EXTT1=
EXTT2=
EXTT3=
EXTT4=
EXTT5=
EXTT6=
EXTT7=
EXTT8=
EXTT9=
EXTT10=
EXTT11=
EXTT12=
EXTT13=
PLAYORDER=
